<svg xmlns="http://www.w3.org/2000/svg" xmlns:xlink="http://www.w3.org/1999/xlink" version="1.1" id="Layer_1" x="0px" y="0px" width="134.899px" height="33px" viewBox="0 0 134.899 33" enable-background="new 0 0 134.899 33" xml:space="preserve">
<g>
  <path fill="#FFFFFF" d="M24.194,20.159c0.083,3.393-1.131,6.324-3.641,8.793c-2.51,2.468-5.461,3.646-8.854,3.537   c-3.283-0.084-6.062-1.324-8.337-3.724S-0.05,23.511-0.05,20.2c0-3.447,1.225-6.404,3.675-8.875   c2.451-2.467,5.368-3.646,8.754-3.536c3.469,0.139,6.36,1.53,8.672,4.179V0.094h3.144V20.159z M21.05,19.91   c-0.056-2.493-0.932-4.626-2.633-6.399s-3.768-2.66-6.2-2.66c-2.489-0.027-4.625,0.853-6.408,2.641   c-1.783,1.785-2.688,3.939-2.715,6.461c-0.028,2.494,0.801,4.676,2.488,6.545c1.686,1.871,3.746,2.847,6.179,2.93   c2.599,0.139,4.816-0.762,6.655-2.701C20.255,24.786,21.133,22.515,21.05,19.91"/>
  <path fill="#FFFFFF" d="M51.956,21.111H30.772c0.249,2.372,1.255,4.33,3.021,5.874c1.764,1.545,3.847,2.304,6.246,2.275   c3.724-0.054,6.385-1.779,7.985-5.171h3.352c-0.883,2.538-2.372,4.551-4.468,6.04c-2.097,1.49-4.427,2.249-6.992,2.275   c-3.227,0.057-6.083-1.123-8.564-3.536c-2.482-2.414-3.751-5.289-3.806-8.626c-0.083-3.531,1.165-6.572,3.744-9.123   c2.579-2.551,5.619-3.73,9.123-3.539c3.145,0.194,5.875,1.491,8.192,3.891c2.234,2.372,3.352,5.02,3.352,7.943V21.111z    M48.853,18.216c-0.441-2.207-1.476-3.993-3.104-5.359c-1.627-1.364-3.572-2.061-5.833-2.089c-2.262-0.026-4.241,0.649-5.938,2.028   c-1.696,1.379-2.765,3.186-3.206,5.42H48.853z"/>
  <path fill="#FFFFFF" d="M68.505,24.792c0.165,2.125-0.579,3.967-2.234,5.525c-1.655,1.558-3.558,2.268-5.709,2.13   c-1.986-0.138-3.648-0.938-4.985-2.399c-1.338-1.461-2.007-3.199-2.007-5.213h3.269v0.793c0,0.808,0.44,1.643,1.324,2.504   c0.882,0.864,1.82,1.281,2.813,1.254c1.324-0.027,2.372-0.43,3.145-1.205c0.688-0.718,1.047-1.658,1.075-2.821   c0.027-2.019-1.119-3.403-3.438-4.15l-2.769-0.88c-2.896-0.91-4.412-2.883-4.55-5.918c-0.083-1.821,0.533-3.381,1.847-4.678   c1.313-1.296,2.898-1.986,4.752-2.068c1.604-0.084,3.104,0.434,4.503,1.552c1.396,1.116,2.151,2.503,2.262,4.157v0.704h-3.31   v-0.544c0-0.838-0.352-1.516-1.055-2.033c-0.704-0.517-1.511-0.775-2.421-0.775c-0.883,0.028-1.648,0.348-2.296,0.958   c-0.648,0.609-0.986,1.372-1.014,2.288c-0.11,1.691,0.896,2.898,3.021,3.617l2.73,0.916C66.602,19.579,68.284,21.677,68.505,24.792   "/>
  <path fill="#FFFFFF" d="M80.172,32.323c-5.737,0-8.606-2.441-8.606-7.324V-0.03h3.145v8.233h5.461v2.937h-5.461v13.323   c0,3.503,1.82,5.253,5.461,5.253V32.323z"/>
  <path fill="#FFFFFF" d="M86.088,5.431h-3.145v-5.503h3.145V5.431z M86.088,31.827h-3.145V8.243h3.145V31.827z"/>
  <path fill="#FFFFFF" d="M110.333,31.827h-3.145V18.05c0-1.986-0.729-3.695-2.184-5.131c-1.457-1.434-3.156-2.15-5.097-2.15   c-1.97,0-3.684,0.717-5.14,2.15c-1.456,1.436-2.184,3.145-2.184,5.131v13.777h-3.144V18.381c0-3.062,0.993-5.606,2.979-7.634   c1.986-2.027,4.482-3.041,7.489-3.041c2.979,0,5.46,1.014,7.447,3.041c1.986,2.027,2.979,4.572,2.979,7.634V31.827z"/>
  <path fill="#FFFFFF" d="M116.787,5.431h-3.145v-5.503h3.145V5.431z M116.787,31.827h-3.145V8.243h3.145V31.827z"/>
  <g>
    <path fill="#FFFFFF" d="M124.544,6.86V1.809h-1.887V1.133h4.539v0.676h-1.895V6.86H124.544z"/>
    <path fill="#FFFFFF" d="M127.951,6.86V1.133h1.141l1.355,4.055c0.125,0.377,0.216,0.66,0.273,0.848    c0.065-0.208,0.167-0.514,0.305-0.918l1.371-3.984h1.02V6.86h-0.73V2.067l-1.664,4.793h-0.684l-1.656-4.875V6.86H127.951z"/>
  </g>
</g>
</svg>